<svg xmlns="http://www.w3.org/2000/svg" viewBox="0 0 1920 1080" width="1920" height="1080" preserveAspectRatio="xMidYMid slice"><rect width="1920" height="1080" fill="#121118"/><rect x="0" y="648" width="1920" height="432" fill="#1A1921"/><g fill="#FAF9F6"><rect x="384" y="0" width="3" height="1080" opacity="0.06"/><rect x="1533" y="0" width="3" height="1080" opacity="0.06"/></g><circle cx="960" cy="475.2" r="190" fill="#FAF9F6" opacity=".022"/><circle cx="960" cy="475.2" r="290" fill="#FAF9F6" opacity=".022"/><circle cx="960" cy="475.2" r="410" fill="#FAF9F6" opacity=".022"/><g fill="none" stroke="#FAF9F6"><circle cx="960" cy="475.2" r="230" opacity="0.34" stroke-width="2"/><circle cx="960" cy="475.2" r="320" opacity="0.27" stroke-width="1.3"/><circle cx="960" cy="475.2" r="440" opacity="0.2" stroke-width="1.3"/><circle cx="960" cy="475.2" r="600" opacity="0.13" stroke-width="1.3"/><path d="M1280 475.2L1294 475.2M1278.25 508.65L1284.21 509.28M1273.01 541.73L1278.88 542.98M1264.34 574.09L1270.04 575.94M1252.33 605.36L1257.82 607.8M1237.13 635.2L1249.25 642.2M1218.89 663.29L1223.74 666.82M1197.81 689.32L1202.27 693.34M1174.12 713.01L1178.14 717.47M1148.09 734.09L1151.62 738.94M1120 752.33L1127 764.45M1090.16 767.53L1092.6 773.02M1058.89 779.54L1060.74 785.24M1026.53 788.21L1027.78 794.08M993.45 793.45L994.08 799.41M960 795.2L960 809.2M926.55 793.45L925.92 799.41M893.47 788.21L892.22 794.08M861.11 779.54L859.26 785.24M829.84 767.53L827.4 773.02M800 752.33L793 764.45M771.91 734.09L768.38 738.94M745.88 713.01L741.86 717.47M722.19 689.32L717.73 693.34M701.11 663.29L696.26 666.82M682.87 635.2L670.75 642.2M667.67 605.36L662.18 607.8M655.66 574.09L649.96 575.94M646.99 541.73L641.12 542.98M641.75 508.65L635.79 509.28M640 475.2L626 475.2M641.75 441.75L635.79 441.12M646.99 408.67L641.12 407.42M655.66 376.31L649.96 374.46M667.67 345.04L662.18 342.6M682.87 315.2L670.75 308.2M701.11 287.11L696.26 283.58M722.19 261.08L717.73 257.06M745.88 237.39L741.86 232.93M771.91 216.31L768.38 211.46M800 198.07L793 185.95M829.84 182.87L827.4 177.38M861.11 170.86L859.26 165.16M893.47 162.19L892.22 156.32M926.55 156.95L925.92 150.99M960 155.2L960 141.2M993.45 156.95L994.08 150.99M1026.53 162.19L1027.78 156.32M1058.89 170.86L1060.74 165.16M1090.16 182.87L1092.6 177.38M1120 198.07L1127 185.95M1148.09 216.31L1151.62 211.46M1174.12 237.39L1178.14 232.93M1197.81 261.08L1202.27 257.06M1218.89 287.11L1223.74 283.58M1237.13 315.2L1249.25 308.2M1252.33 345.04L1257.82 342.6M1264.34 376.31L1270.04 374.46M1273.01 408.67L1278.88 407.42M1278.25 441.75L1284.21 441.12" opacity=".3" stroke-width="1.6"/></g><path d="M960 648L-1377.5 1188M960 648L-1165 1188M960 648L-952.5 1188M960 648L-740 1188M960 648L-527.5 1188M960 648L-315 1188M960 648L-102.5 1188M960 648L110 1188M960 648L322.5 1188M960 648L535 1188M960 648L747.5 1188M960 648L960 1188M960 648L1172.5 1188M960 648L1385 1188M960 648L1597.5 1188M960 648L1810 1188M960 648L2022.5 1188M960 648L2235 1188M960 648L2447.5 1188M960 648L2660 1188M960 648L2872.5 1188M960 648L3085 1188M960 648L3297.5 1188" stroke="#FAF9F6" stroke-width="1.2" opacity=".13" fill="none"/><path d="M0 650.87H1920M0 660.28H1920M0 676.78H1920M0 700.66H1920M0 732.14H1920M0 771.39H1920M0 818.56H1920M0 873.76H1920M0 937.11H1920M0 1008.71H1920" stroke="#FAF9F6" stroke-width="1" opacity=".07" fill="none"/><g fill="#FAF9F6"><circle cx="947.84" cy="650.87" r="0.82" opacity="0.18"/><circle cx="948.95" cy="650.87" r="0.82" opacity="0.18"/><circle cx="950.05" cy="650.87" r="0.82" opacity="0.18"/><circle cx="951.16" cy="650.87" r="0.82" opacity="0.18"/><circle cx="952.26" cy="650.87" r="0.82" opacity="0.18"/><circle cx="953.37" cy="650.87" r="0.82" opacity="0.18"/><circle cx="954.47" cy="650.87" r="0.82" opacity="0.18"/><circle cx="955.58" cy="650.87" r="0.82" opacity="0.18"/><circle cx="956.68" cy="650.87" r="0.82" opacity="0.18"/><circle cx="957.79" cy="650.87" r="0.82" opacity="0.18"/><circle cx="958.89" cy="650.87" r="0.82" opacity="0.18"/><circle cx="960" cy="650.87" r="0.82" opacity="0.18"/><circle cx="961.11" cy="650.87" r="0.82" opacity="0.18"/><circle cx="962.21" cy="650.87" r="0.82" opacity="0.18"/><circle cx="963.32" cy="650.87" r="0.82" opacity="0.18"/><circle cx="964.42" cy="650.87" r="0.82" opacity="0.18"/><circle cx="965.53" cy="650.87" r="0.82" opacity="0.18"/><circle cx="966.63" cy="650.87" r="0.82" opacity="0.18"/><circle cx="967.74" cy="650.87" r="0.82" opacity="0.18"/><circle cx="968.84" cy="650.87" r="0.82" opacity="0.18"/><circle cx="969.95" cy="650.87" r="0.82" opacity="0.18"/><circle cx="971.05" cy="650.87" r="0.82" opacity="0.18"/><circle cx="972.16" cy="650.87" r="0.82" opacity="0.18"/><circle cx="907.87" cy="660.28" r="0.9" opacity="0.2"/><circle cx="912.61" cy="660.28" r="0.9" opacity="0.2"/><circle cx="917.35" cy="660.28" r="0.9" opacity="0.2"/><circle cx="922.09" cy="660.28" r="0.9" opacity="0.2"/><circle cx="926.83" cy="660.28" r="0.9" opacity="0.2"/><circle cx="931.57" cy="660.28" r="0.9" opacity="0.2"/><circle cx="936.3" cy="660.28" r="0.9" opacity="0.2"/><circle cx="941.04" cy="660.28" r="0.9" opacity="0.2"/><circle cx="945.78" cy="660.28" r="0.9" opacity="0.2"/><circle cx="950.52" cy="660.28" r="0.9" opacity="0.2"/><circle cx="955.26" cy="660.28" r="0.9" opacity="0.2"/><circle cx="960" cy="660.28" r="0.9" opacity="0.2"/><circle cx="964.74" cy="660.28" r="0.9" opacity="0.2"/><circle cx="969.48" cy="660.28" r="0.9" opacity="0.2"/><circle cx="974.22" cy="660.28" r="0.9" opacity="0.2"/><circle cx="978.96" cy="660.28" r="0.9" opacity="0.2"/><circle cx="983.7" cy="660.28" r="0.9" opacity="0.2"/><circle cx="988.43" cy="660.28" r="0.9" opacity="0.2"/><circle cx="993.17" cy="660.28" r="0.9" opacity="0.2"/><circle cx="997.91" cy="660.28" r="0.9" opacity="0.2"/><circle cx="1002.65" cy="660.28" r="0.9" opacity="0.2"/><circle cx="1007.39" cy="660.28" r="0.9" opacity="0.2"/><circle cx="1012.13" cy="660.28" r="0.9" opacity="0.2"/><circle cx="837.86" cy="676.78" r="1.04" opacity="0.22"/><circle cx="848.96" cy="676.78" r="1.04" opacity="0.22"/><circle cx="860.06" cy="676.78" r="1.04" opacity="0.22"/><circle cx="871.17" cy="676.78" r="1.04" opacity="0.22"/><circle cx="882.27" cy="676.78" r="1.04" opacity="0.22"/><circle cx="893.38" cy="676.78" r="1.04" opacity="0.22"/><circle cx="904.48" cy="676.78" r="1.04" opacity="0.22"/><circle cx="915.58" cy="676.78" r="1.04" opacity="0.22"/><circle cx="926.69" cy="676.78" r="1.04" opacity="0.22"/><circle cx="937.79" cy="676.78" r="1.04" opacity="0.22"/><circle cx="948.9" cy="676.78" r="1.04" opacity="0.22"/><circle cx="960" cy="676.78" r="1.04" opacity="0.22"/><circle cx="971.1" cy="676.78" r="1.04" opacity="0.22"/><circle cx="982.21" cy="676.78" r="1.04" opacity="0.22"/><circle cx="993.31" cy="676.78" r="1.04" opacity="0.22"/><circle cx="1004.42" cy="676.78" r="1.04" opacity="0.22"/><circle cx="1015.52" cy="676.78" r="1.04" opacity="0.22"/><circle cx="1026.62" cy="676.78" r="1.04" opacity="0.22"/><circle cx="1037.73" cy="676.78" r="1.04" opacity="0.22"/><circle cx="1048.83" cy="676.78" r="1.04" opacity="0.22"/><circle cx="1059.94" cy="676.78" r="1.04" opacity="0.22"/><circle cx="1071.04" cy="676.78" r="1.04" opacity="0.22"/><circle cx="1082.14" cy="676.78" r="1.04" opacity="0.22"/><circle cx="736.52" cy="700.66" r="1.23" opacity="0.25"/><circle cx="756.83" cy="700.66" r="1.23" opacity="0.25"/><circle cx="777.15" cy="700.66" r="1.23" opacity="0.25"/><circle cx="797.47" cy="700.66" r="1.23" opacity="0.25"/><circle cx="817.78" cy="700.66" r="1.23" opacity="0.25"/><circle cx="838.1" cy="700.66" r="1.23" opacity="0.25"/><circle cx="858.42" cy="700.66" r="1.23" opacity="0.25"/><circle cx="878.73" cy="700.66" r="1.23" opacity="0.25"/><circle cx="899.05" cy="700.66" r="1.23" opacity="0.25"/><circle cx="919.37" cy="700.66" r="1.23" opacity="0.25"/><circle cx="939.68" cy="700.66" r="1.23" opacity="0.25"/><circle cx="960" cy="700.66" r="1.23" opacity="0.25"/><circle cx="980.32" cy="700.66" r="1.23" opacity="0.25"/><circle cx="1000.63" cy="700.66" r="1.23" opacity="0.25"/><circle cx="1020.95" cy="700.66" r="1.23" opacity="0.25"/><circle cx="1041.27" cy="700.66" r="1.23" opacity="0.25"/><circle cx="1061.58" cy="700.66" r="1.23" opacity="0.25"/><circle cx="1081.9" cy="700.66" r="1.23" opacity="0.25"/><circle cx="1102.22" cy="700.66" r="1.23" opacity="0.25"/><circle cx="1122.53" cy="700.66" r="1.23" opacity="0.25"/><circle cx="1142.85" cy="700.66" r="1.23" opacity="0.25"/><circle cx="1163.17" cy="700.66" r="1.23" opacity="0.25"/><circle cx="1183.48" cy="700.66" r="1.23" opacity="0.25"/><circle cx="602.93" cy="732.14" r="1.49" opacity="0.3"/><circle cx="635.39" cy="732.14" r="1.49" opacity="0.3"/><circle cx="667.85" cy="732.14" r="1.49" opacity="0.3"/><circle cx="700.31" cy="732.14" r="1.49" opacity="0.3"/><circle cx="732.77" cy="732.14" r="1.49" opacity="0.3"/><circle cx="765.23" cy="732.14" r="1.49" opacity="0.3"/><circle cx="797.7" cy="732.14" r="1.49" opacity="0.3"/><circle cx="830.16" cy="732.14" r="1.49" opacity="0.3"/><circle cx="862.62" cy="732.14" r="1.49" opacity="0.3"/><circle cx="895.08" cy="732.14" r="1.49" opacity="0.3"/><circle cx="927.54" cy="732.14" r="1.49" opacity="0.3"/><circle cx="960" cy="732.14" r="1.49" opacity="0.3"/><circle cx="992.46" cy="732.14" r="1.49" opacity="0.3"/><circle cx="1024.92" cy="732.14" r="1.49" opacity="0.3"/><circle cx="1057.38" cy="732.14" r="1.49" opacity="0.3"/><circle cx="1089.84" cy="732.14" r="1.49" opacity="0.3"/><circle cx="1122.3" cy="732.14" r="1.49" opacity="0.3"/><circle cx="1154.77" cy="732.14" r="1.49" opacity="0.3"/><circle cx="1187.23" cy="732.14" r="1.49" opacity="0.3"/><circle cx="1219.69" cy="732.14" r="1.49" opacity="0.3"/><circle cx="1252.15" cy="732.14" r="1.49" opacity="0.3"/><circle cx="1284.61" cy="732.14" r="1.49" opacity="0.3"/><circle cx="1317.07" cy="732.14" r="1.49" opacity="0.3"/><circle cx="436.36" cy="771.39" r="1.81" opacity="0.35"/><circle cx="483.96" cy="771.39" r="1.81" opacity="0.35"/><circle cx="531.57" cy="771.39" r="1.81" opacity="0.35"/><circle cx="579.17" cy="771.39" r="1.81" opacity="0.35"/><circle cx="626.77" cy="771.39" r="1.81" opacity="0.35"/><circle cx="674.38" cy="771.39" r="1.81" opacity="0.35"/><circle cx="721.98" cy="771.39" r="1.81" opacity="0.35"/><circle cx="769.58" cy="771.39" r="1.81" opacity="0.35"/><circle cx="817.19" cy="771.39" r="1.81" opacity="0.35"/><circle cx="864.79" cy="771.39" r="1.81" opacity="0.35"/><circle cx="912.4" cy="771.39" r="1.81" opacity="0.35"/><circle cx="960" cy="771.39" r="1.81" opacity="0.35"/><circle cx="1007.6" cy="771.39" r="1.81" opacity="0.35"/><circle cx="1055.21" cy="771.39" r="1.81" opacity="0.35"/><circle cx="1102.81" cy="771.39" r="1.81" opacity="0.35"/><circle cx="1150.42" cy="771.39" r="1.81" opacity="0.35"/><circle cx="1198.02" cy="771.39" r="1.81" opacity="0.35"/><circle cx="1245.62" cy="771.39" r="1.81" opacity="0.35"/><circle cx="1293.23" cy="771.39" r="1.81" opacity="0.35"/><circle cx="1340.83" cy="771.39" r="1.81" opacity="0.35"/><circle cx="1388.43" cy="771.39" r="1.81" opacity="0.35"/><circle cx="1436.04" cy="771.39" r="1.81" opacity="0.35"/><circle cx="1483.64" cy="771.39" r="1.81" opacity="0.35"/><circle cx="236.19" cy="818.56" r="2.19" opacity="0.42"/><circle cx="301.99" cy="818.56" r="2.19" opacity="0.42"/><circle cx="367.79" cy="818.56" r="2.19" opacity="0.42"/><circle cx="433.59" cy="818.56" r="2.19" opacity="0.42"/><circle cx="499.4" cy="818.56" r="2.19" opacity="0.42"/><circle cx="565.2" cy="818.56" r="2.19" opacity="0.42"/><circle cx="631" cy="818.56" r="2.19" opacity="0.42"/><circle cx="696.8" cy="818.56" r="2.19" opacity="0.42"/><circle cx="762.6" cy="818.56" r="2.19" opacity="0.42"/><circle cx="828.4" cy="818.56" r="2.19" opacity="0.42"/><circle cx="894.2" cy="818.56" r="2.19" opacity="0.42"/><circle cx="960" cy="818.56" r="2.19" opacity="0.42"/><circle cx="1025.8" cy="818.56" r="2.19" opacity="0.42"/><circle cx="1091.6" cy="818.56" r="2.19" opacity="0.42"/><circle cx="1157.4" cy="818.56" r="2.19" opacity="0.42"/><circle cx="1223.2" cy="818.56" r="2.19" opacity="0.42"/><circle cx="1289" cy="818.56" r="2.19" opacity="0.42"/><circle cx="1354.8" cy="818.56" r="2.19" opacity="0.42"/><circle cx="1420.6" cy="818.56" r="2.19" opacity="0.42"/><circle cx="1486.41" cy="818.56" r="2.19" opacity="0.42"/><circle cx="1552.21" cy="818.56" r="2.19" opacity="0.42"/><circle cx="1618.01" cy="818.56" r="2.19" opacity="0.42"/><circle cx="1683.81" cy="818.56" r="2.19" opacity="0.42"/><circle cx="1.91" cy="873.76" r="2.64" opacity="0.5"/><circle cx="89.01" cy="873.76" r="2.64" opacity="0.5"/><circle cx="176.11" cy="873.76" r="2.64" opacity="0.5"/><circle cx="263.21" cy="873.76" r="2.64" opacity="0.5"/><circle cx="350.31" cy="873.76" r="2.64" opacity="0.5"/><circle cx="437.41" cy="873.76" r="2.64" opacity="0.5"/><circle cx="524.5" cy="873.76" r="2.64" opacity="0.5"/><circle cx="611.6" cy="873.76" r="2.64" opacity="0.5"/><circle cx="698.7" cy="873.76" r="2.64" opacity="0.5"/><circle cx="785.8" cy="873.76" r="2.64" opacity="0.5"/><circle cx="872.9" cy="873.76" r="2.64" opacity="0.5"/><circle cx="960" cy="873.76" r="2.64" opacity="0.5"/><circle cx="1047.1" cy="873.76" r="2.64" opacity="0.5"/><circle cx="1134.2" cy="873.76" r="2.64" opacity="0.5"/><circle cx="1221.3" cy="873.76" r="2.64" opacity="0.5"/><circle cx="1308.4" cy="873.76" r="2.64" opacity="0.5"/><circle cx="1395.5" cy="873.76" r="2.64" opacity="0.5"/><circle cx="1482.59" cy="873.76" r="2.64" opacity="0.5"/><circle cx="1569.69" cy="873.76" r="2.64" opacity="0.5"/><circle cx="1656.79" cy="873.76" r="2.64" opacity="0.5"/><circle cx="1743.89" cy="873.76" r="2.64" opacity="0.5"/><circle cx="1830.99" cy="873.76" r="2.64" opacity="0.5"/><circle cx="1918.09" cy="873.76" r="2.64" opacity="0.5"/><circle cx="67.67" cy="937.11" r="3.16" opacity="0.59"/><circle cx="179.21" cy="937.11" r="3.16" opacity="0.59"/><circle cx="290.76" cy="937.11" r="3.16" opacity="0.59"/><circle cx="402.3" cy="937.11" r="3.16" opacity="0.59"/><circle cx="513.84" cy="937.11" r="3.16" opacity="0.59"/><circle cx="625.38" cy="937.11" r="3.16" opacity="0.59"/><circle cx="736.92" cy="937.11" r="3.16" opacity="0.59"/><circle cx="848.46" cy="937.11" r="3.16" opacity="0.59"/><circle cx="960" cy="937.11" r="3.16" opacity="0.59"/><circle cx="1071.54" cy="937.11" r="3.16" opacity="0.59"/><circle cx="1183.08" cy="937.11" r="3.16" opacity="0.59"/><circle cx="1294.62" cy="937.11" r="3.16" opacity="0.59"/><circle cx="1406.16" cy="937.11" r="3.16" opacity="0.59"/><circle cx="1517.7" cy="937.11" r="3.16" opacity="0.59"/><circle cx="1629.24" cy="937.11" r="3.16" opacity="0.59"/><circle cx="1740.79" cy="937.11" r="3.16" opacity="0.59"/><circle cx="1852.33" cy="937.11" r="3.16" opacity="0.59"/><circle cx="125.02" cy="1008.71" r="3.75" opacity="0.69"/><circle cx="264.18" cy="1008.71" r="3.75" opacity="0.69"/><circle cx="403.35" cy="1008.71" r="3.75" opacity="0.69"/><circle cx="542.51" cy="1008.71" r="3.75" opacity="0.69"/><circle cx="681.67" cy="1008.71" r="3.75" opacity="0.69"/><circle cx="820.84" cy="1008.71" r="3.75" opacity="0.69"/><circle cx="960" cy="1008.71" r="3.75" opacity="0.69"/><circle cx="1099.16" cy="1008.71" r="3.75" opacity="0.69"/><circle cx="1238.33" cy="1008.71" r="3.75" opacity="0.69"/><circle cx="1377.49" cy="1008.71" r="3.75" opacity="0.69"/><circle cx="1516.65" cy="1008.71" r="3.75" opacity="0.69"/><circle cx="1655.82" cy="1008.71" r="3.75" opacity="0.69"/><circle cx="1794.98" cy="1008.71" r="3.75" opacity="0.69"/></g><rect x="0" y="647" width="1920" height="2" fill="#FAF9F6" opacity=".28"/></svg>
